<svg version="1.1" id="Layer_1" xmlns="http://www.w3.org/2000/svg" xmlns:xlink="http://www.w3.org/1999/xlink" x="0px" y="0px"
	 width="100%" viewBox="0 0 100 100" enable-background="new 0 0 100 100" xml:space="preserve">
<path fill="#010101" opacity="1.000000" stroke="none" 
	d="
M55.000000,101.000000 
	C36.666668,101.000000 18.833340,101.000000 1.000007,101.000000 
	C1.000005,67.666679 1.000005,34.333351 1.000002,1.000021 
	C34.333317,1.000014 67.666634,1.000014 100.999969,1.000007 
	C100.999977,34.333313 100.999977,67.666626 100.999985,100.999969 
	C85.833336,101.000000 70.666664,101.000000 55.000000,101.000000 
M59.075226,48.671284 
	C63.042328,41.647831 67.009430,34.624378 70.852264,27.820932 
	C61.796993,24.832129 56.599243,28.442158 53.800678,36.559319 
	C53.269791,38.099133 51.947212,39.357922 51.361832,40.888607 
	C49.889317,44.739037 47.356232,45.741589 43.157677,44.165661 
	C43.157677,38.639069 43.157677,33.056812 43.157677,27.378029 
	C39.241646,27.378029 35.819725,27.378029 32.193878,27.378029 
	C32.193878,42.311119 32.193878,57.025131 32.193878,71.696304 
	C36.050449,71.696304 39.625713,71.696304 43.580482,71.696304 
	C43.580482,65.631187 43.580482,59.874393 43.580482,54.255733 
	C47.582829,53.010933 49.783325,54.247715 51.362942,57.768673 
	C53.191021,61.843452 55.512917,65.712868 57.842796,69.535927 
	C58.494141,70.604706 59.871353,71.777855 61.017605,71.893692 
	C64.198128,72.215126 67.432343,72.005150 71.092873,72.005150 
	C66.801338,64.001831 62.890228,56.707970 59.075226,48.671284 
z"/>
<path fill="#FBFBFB" opacity="1.000000" stroke="none" 
	d="
M59.027172,49.042698 
	C62.890228,56.707970 66.801338,64.001831 71.092873,72.005150 
	C67.432343,72.005150 64.198128,72.215126 61.017605,71.893692 
	C59.871353,71.777855 58.494141,70.604706 57.842796,69.535927 
	C55.512917,65.712868 53.191021,61.843452 51.362942,57.768673 
	C49.783325,54.247715 47.582829,53.010933 43.580482,54.255733 
	C43.580482,59.874393 43.580482,65.631187 43.580482,71.696304 
	C39.625713,71.696304 36.050449,71.696304 32.193878,71.696304 
	C32.193878,57.025131 32.193878,42.311119 32.193878,27.378029 
	C35.819725,27.378029 39.241646,27.378029 43.157677,27.378029 
	C43.157677,33.056812 43.157677,38.639069 43.157677,44.165661 
	C47.356232,45.741589 49.889317,44.739037 51.361832,40.888607 
	C51.947212,39.357922 53.269791,38.099133 53.800678,36.559319 
	C56.599243,28.442158 61.796993,24.832129 70.852264,27.820932 
	C67.009430,34.624378 63.042328,41.647831 59.027172,49.042698 
z"/>
</svg>