<svg id="visual" viewBox="0 0 960 540" width="960" height="540" xmlns="http://www.w3.org/2000/svg" xmlns:xlink="http://www.w3.org/1999/xlink" version="1.1"><path d="M0 71L44 71L44 93L87 93L87 125L131 125L131 158L175 158L175 66L218 66L218 125L262 125L262 141L305 141L305 98L349 98L349 125L393 125L393 141L436 141L436 136L480 136L480 71L524 71L524 163L567 163L567 98L611 98L611 55L655 55L655 66L698 66L698 33L742 33L742 104L785 104L785 93L829 93L829 55L873 55L873 109L916 109L916 44L960 44L960 120L960 0L960 0L916 0L916 0L873 0L873 0L829 0L829 0L785 0L785 0L742 0L742 0L698 0L698 0L655 0L655 0L611 0L611 0L567 0L567 0L524 0L524 0L480 0L480 0L436 0L436 0L393 0L393 0L349 0L349 0L305 0L305 0L262 0L262 0L218 0L218 0L175 0L175 0L131 0L131 0L87 0L87 0L44 0L44 0L0 0Z" fill="#ffffff"></path><path d="M0 179L44 179L44 179L87 179L87 244L131 244L131 233L175 233L175 114L218 114L218 206L262 206L262 195L305 195L305 212L349 212L349 174L393 174L393 201L436 201L436 239L480 239L480 125L524 125L524 201L567 201L567 131L611 131L611 141L655 141L655 190L698 190L698 147L742 147L742 217L785 217L785 179L829 179L829 168L873 168L873 201L916 201L916 136L960 136L960 217L960 118L960 42L916 42L916 107L873 107L873 53L829 53L829 91L785 91L785 102L742 102L742 31L698 31L698 64L655 64L655 53L611 53L611 96L567 96L567 161L524 161L524 69L480 69L480 134L436 134L436 139L393 139L393 123L349 123L349 96L305 96L305 139L262 139L262 123L218 123L218 64L175 64L175 156L131 156L131 123L87 123L87 91L44 91L44 69L0 69Z" fill="#b9b9b9"></path><path d="M0 314L44 314L44 249L87 249L87 330L131 330L131 449L175 449L175 363L218 363L218 352L262 352L262 298L305 298L305 379L349 379L349 325L393 325L393 374L436 374L436 325L480 325L480 374L524 374L524 287L567 287L567 357L611 357L611 379L655 379L655 411L698 411L698 384L742 384L742 276L785 276L785 379L829 379L829 266L873 266L873 320L916 320L916 336L960 336L960 357L960 215L960 134L916 134L916 199L873 199L873 166L829 166L829 177L785 177L785 215L742 215L742 145L698 145L698 188L655 188L655 139L611 139L611 129L567 129L567 199L524 199L524 123L480 123L480 237L436 237L436 199L393 199L393 172L349 172L349 210L305 210L305 193L262 193L262 204L218 204L218 112L175 112L175 231L131 231L131 242L87 242L87 177L44 177L44 177L0 177Z" fill="#777777"></path><path d="M0 411L44 411L44 314L87 314L87 384L131 384L131 487L175 487L175 401L218 401L218 438L262 438L262 395L305 395L305 444L349 444L349 363L393 363L393 433L436 433L436 374L480 374L480 476L524 476L524 363L567 363L567 444L611 444L611 428L655 428L655 465L698 465L698 460L742 460L742 357L785 357L785 433L829 433L829 330L873 330L873 417L916 417L916 379L960 379L960 449L960 355L960 334L916 334L916 318L873 318L873 264L829 264L829 377L785 377L785 274L742 274L742 382L698 382L698 409L655 409L655 377L611 377L611 355L567 355L567 285L524 285L524 372L480 372L480 323L436 323L436 372L393 372L393 323L349 323L349 377L305 377L305 296L262 296L262 350L218 350L218 361L175 361L175 447L131 447L131 328L87 328L87 247L44 247L44 312L0 312Z" fill="#3b3b3b"></path><path d="M0 541L44 541L44 541L87 541L87 541L131 541L131 541L175 541L175 541L218 541L218 541L262 541L262 541L305 541L305 541L349 541L349 541L393 541L393 541L436 541L436 541L480 541L480 541L524 541L524 541L567 541L567 541L611 541L611 541L655 541L655 541L698 541L698 541L742 541L742 541L785 541L785 541L829 541L829 541L873 541L873 541L916 541L916 541L960 541L960 541L960 447L960 377L916 377L916 415L873 415L873 328L829 328L829 431L785 431L785 355L742 355L742 458L698 458L698 463L655 463L655 426L611 426L611 442L567 442L567 361L524 361L524 474L480 474L480 372L436 372L436 431L393 431L393 361L349 361L349 442L305 442L305 393L262 393L262 436L218 436L218 399L175 399L175 485L131 485L131 382L87 382L87 312L44 312L44 409L0 409Z" fill="#000000"></path></svg>